<svg width="210" height="77" viewBox="0 0 210 77" fill="none" xmlns="http://www.w3.org/2000/svg">
<path d="M0.648 16.28H30.348V25.568H28.836L27.108 19.574C27 19.106 26.874 18.782 26.73 18.602C26.622 18.386 26.388 18.26 26.028 18.224C25.668 18.188 25.056 18.17 24.192 18.17H18.738V48.464C18.738 49.688 18.792 50.426 18.9 50.678C19.008 50.894 19.35 51.038 19.926 51.11L22.896 51.488V53H8.1V51.488L11.07 51.11C11.646 51.038 11.988 50.894 12.096 50.678C12.204 50.426 12.258 49.688 12.258 48.464V18.17H6.804C5.976 18.17 5.364 18.188 4.968 18.224C4.608 18.26 4.374 18.386 4.266 18.602C4.158 18.782 4.032 19.106 3.888 19.574L2.16 25.568H0.648V16.28ZM44.1298 17.792V16.28H58.9258V17.792L55.9558 18.17C55.3798 18.242 55.0378 18.404 54.9298 18.656C54.8218 18.872 54.7678 19.592 54.7678 20.816V48.464C54.7678 49.688 54.8218 50.426 54.9298 50.678C55.0378 50.894 55.3798 51.038 55.9558 51.11L58.9258 51.488V53H44.1298V51.488L47.0998 51.11C47.6758 51.038 48.0178 50.894 48.1258 50.678C48.2338 50.426 48.2878 49.688 48.2878 48.464V20.816C48.2878 19.592 48.2338 18.872 48.1258 18.656C48.0178 18.404 47.6758 18.242 47.0998 18.17L44.1298 17.792ZM97.1768 17.792V16.28H107.653V17.792L104.683 18.17C104.107 18.242 103.765 18.404 103.657 18.656C103.549 18.872 103.495 19.592 103.495 20.816V53H100.525L80.7068 20.978V48.464C80.7068 49.688 80.7608 50.426 80.8688 50.678C80.9768 50.894 81.3188 51.038 81.8948 51.11L84.8648 51.488V53H74.3888V51.488L77.3588 51.11C77.9348 51.038 78.2768 50.894 78.3848 50.678C78.4928 50.426 78.5468 49.688 78.5468 48.464V20.816C78.5468 19.592 78.4928 18.872 78.3848 18.656C78.2768 18.404 77.9348 18.242 77.3588 18.17L74.3888 17.792V16.28H85.2428L101.335 42.146V20.816C101.335 19.592 101.281 18.872 101.173 18.656C101.065 18.404 100.723 18.242 100.147 18.17L97.1768 17.792ZM139.433 37.88V36.368H154.769V37.88L151.799 38.258C151.223 38.33 150.881 38.492 150.773 38.744C150.665 38.96 150.611 39.68 150.611 40.904V53H149.153C148.181 51.992 147.101 51.146 145.913 50.462C144.941 51.326 143.789 52.064 142.457 52.676C141.125 53.252 139.505 53.54 137.597 53.54C134.645 53.54 132.107 52.802 129.983 51.326C127.895 49.814 126.293 47.744 125.177 45.116C124.061 42.452 123.503 39.428 123.503 36.044V32.642C123.503 29.366 124.061 26.468 125.177 23.948C126.293 21.392 127.931 19.394 130.091 17.954C132.251 16.478 134.897 15.74 138.029 15.74C140.981 15.74 143.411 16.28 145.319 17.36C147.263 18.404 148.685 19.808 149.585 21.572C150.485 23.3 150.827 25.19 150.611 27.242L144.293 28.808C144.689 25.208 144.293 22.454 143.105 20.546C141.917 18.602 140.153 17.63 137.813 17.63C132.881 17.63 130.415 22.004 130.415 30.752V38.474C130.415 47.258 133.025 51.65 138.245 51.65C139.397 51.65 140.549 51.416 141.701 50.948C142.889 50.48 143.879 49.796 144.671 48.896V40.904C144.671 39.68 144.617 38.942 144.509 38.69C144.401 38.438 144.059 38.294 143.483 38.258L139.433 37.88ZM199.378 32.912V36.314C199.378 41.858 198.136 46.124 195.652 49.112C193.204 52.064 189.568 53.54 184.744 53.54C179.92 53.54 176.266 52.064 173.782 49.112C171.334 46.124 170.11 41.858 170.11 36.314V32.912C170.11 27.368 171.334 23.12 173.782 20.168C176.266 17.216 179.92 15.74 184.744 15.74C189.568 15.74 193.204 17.216 195.652 20.168C198.136 23.12 199.378 27.368 199.378 32.912ZM192.466 30.212C192.466 27.044 192.196 24.56 191.656 22.76C191.116 20.924 190.27 19.61 189.118 18.818C188.002 18.026 186.544 17.63 184.744 17.63C182.98 17.63 181.522 18.026 180.37 18.818C179.218 19.61 178.372 20.924 177.832 22.76C177.292 24.56 177.022 27.044 177.022 30.212V39.014C177.022 42.146 177.292 44.63 177.832 46.466C178.372 48.302 179.218 49.634 180.37 50.462C181.522 51.254 182.98 51.65 184.744 51.65C186.544 51.65 188.002 51.254 189.118 50.462C190.27 49.634 191.116 48.302 191.656 46.466C192.196 44.63 192.466 42.146 192.466 39.014V30.212Z" fill="black"/>
<path d="M29.944 73.1515L27.124 65.6395H27.076C27.092 65.7995 27.104 66.0035 27.112 66.2515C27.128 66.4995 27.14 66.7715 27.148 67.0675C27.156 67.3555 27.16 67.6515 27.16 67.9555V73.1515H26.164V64.5835H27.76L30.4 71.6035H30.448L33.136 64.5835H34.72V73.1515H33.652V67.8835C33.652 67.6035 33.656 67.3275 33.664 67.0555C33.672 66.7755 33.684 66.5155 33.7 66.2755C33.716 66.0275 33.728 65.8195 33.736 65.6515H33.688L30.832 73.1515H29.944ZM39.3427 66.6115C40.1267 66.6115 40.7067 66.7835 41.0827 67.1275C41.4587 67.4715 41.6467 68.0195 41.6467 68.7715V73.1515H40.8787L40.6747 72.2395H40.6267C40.4427 72.4715 40.2507 72.6675 40.0507 72.8275C39.8587 72.9795 39.6347 73.0915 39.3787 73.1635C39.1307 73.2355 38.8267 73.2715 38.4667 73.2715C38.0827 73.2715 37.7347 73.2035 37.4227 73.0675C37.1187 72.9315 36.8787 72.7235 36.7027 72.4435C36.5267 72.1555 36.4387 71.7955 36.4387 71.3635C36.4387 70.7235 36.6907 70.2315 37.1947 69.8875C37.6987 69.5355 38.4747 69.3435 39.5227 69.3115L40.6147 69.2755V68.8915C40.6147 68.3555 40.4987 67.9835 40.2667 67.7755C40.0347 67.5675 39.7067 67.4635 39.2827 67.4635C38.9467 67.4635 38.6267 67.5155 38.3227 67.6195C38.0187 67.7155 37.7347 67.8275 37.4707 67.9555L37.1467 67.1635C37.4267 67.0115 37.7587 66.8835 38.1427 66.7795C38.5267 66.6675 38.9267 66.6115 39.3427 66.6115ZM39.6547 70.0435C38.8547 70.0755 38.2987 70.2035 37.9867 70.4275C37.6827 70.6515 37.5307 70.9675 37.5307 71.3755C37.5307 71.7355 37.6387 71.9995 37.8547 72.1675C38.0787 72.3355 38.3627 72.4195 38.7067 72.4195C39.2507 72.4195 39.7027 72.2715 40.0627 71.9755C40.4227 71.6715 40.6027 71.2075 40.6027 70.5835V70.0075L39.6547 70.0435ZM47.5573 66.7195V67.6075H44.6893V73.1515H43.6333V66.7195H47.5573ZM51.2607 66.6115C52.0447 66.6115 52.6247 66.7835 53.0007 67.1275C53.3767 67.4715 53.5647 68.0195 53.5647 68.7715V73.1515H52.7967L52.5927 72.2395H52.5447C52.3607 72.4715 52.1687 72.6675 51.9687 72.8275C51.7767 72.9795 51.5527 73.0915 51.2967 73.1635C51.0487 73.2355 50.7447 73.2715 50.3847 73.2715C50.0007 73.2715 49.6527 73.2035 49.3407 73.0675C49.0367 72.9315 48.7967 72.7235 48.6207 72.4435C48.4447 72.1555 48.3567 71.7955 48.3567 71.3635C48.3567 70.7235 48.6087 70.2315 49.1127 69.8875C49.6167 69.5355 50.3927 69.3435 51.4407 69.3115L52.5327 69.2755V68.8915C52.5327 68.3555 52.4167 67.9835 52.1847 67.7755C51.9527 67.5675 51.6247 67.4635 51.2007 67.4635C50.8647 67.4635 50.5447 67.5155 50.2407 67.6195C49.9367 67.7155 49.6527 67.8275 49.3887 67.9555L49.0647 67.1635C49.3447 67.0115 49.6767 66.8835 50.0607 66.7795C50.4447 66.6675 50.8447 66.6115 51.2607 66.6115ZM51.5727 70.0435C50.7727 70.0755 50.2167 70.2035 49.9047 70.4275C49.6007 70.6515 49.4487 70.9675 49.4487 71.3755C49.4487 71.7355 49.5567 71.9995 49.7727 72.1675C49.9967 72.3355 50.2807 72.4195 50.6247 72.4195C51.1687 72.4195 51.6207 72.2715 51.9807 71.9755C52.3407 71.6715 52.5207 71.2075 52.5207 70.5835V70.0075L51.5727 70.0435ZM57.2433 66.5995C57.7313 66.5995 58.1553 66.6675 58.5153 66.8035C58.8753 66.9315 59.1553 67.1235 59.3553 67.3795C59.5553 67.6275 59.6553 67.9315 59.6553 68.2915C59.6553 68.6835 59.5473 68.9955 59.3313 69.2275C59.1153 69.4515 58.8193 69.6155 58.4433 69.7195V69.7675C58.6993 69.8395 58.9353 69.9395 59.1513 70.0675C59.3673 70.1955 59.5393 70.3635 59.6673 70.5715C59.8033 70.7795 59.8713 71.0475 59.8713 71.3755C59.8713 71.7275 59.7713 72.0475 59.5713 72.3355C59.3793 72.6235 59.0793 72.8515 58.6713 73.0195C58.2713 73.1875 57.7553 73.2715 57.1233 73.2715C56.8193 73.2715 56.5273 73.2555 56.2473 73.2235C55.9753 73.1915 55.7273 73.1435 55.5033 73.0795C55.2873 73.0155 55.0953 72.9395 54.9272 72.8515V71.9035C55.1993 72.0315 55.5193 72.1475 55.8873 72.2515C56.2633 72.3555 56.6713 72.4075 57.1113 72.4075C57.4313 72.4075 57.7193 72.3715 57.9753 72.2995C58.2393 72.2275 58.4473 72.1155 58.5993 71.9635C58.7513 71.8035 58.8273 71.5875 58.8273 71.3155C58.8273 71.0675 58.7593 70.8675 58.6233 70.7155C58.4873 70.5555 58.2833 70.4355 58.0113 70.3555C57.7473 70.2755 57.4073 70.2355 56.9913 70.2355H56.1273V69.3715H56.8233C57.3753 69.3715 57.8153 69.2995 58.1433 69.1555C58.4793 69.0035 58.6473 68.7475 58.6473 68.3875C58.6473 68.0835 58.5193 67.8555 58.2633 67.7035C58.0153 67.5515 57.6553 67.4755 57.1833 67.4755C56.8313 67.4755 56.5193 67.5115 56.2473 67.5835C55.9833 67.6475 55.6913 67.7475 55.3713 67.8835L54.9993 67.0435C55.3433 66.8915 55.7033 66.7795 56.0793 66.7075C56.4553 66.6355 56.8433 66.5995 57.2433 66.5995ZM62.4301 70.6435C62.4301 70.7155 62.4261 70.8195 62.4181 70.9555C62.4181 71.0835 62.4141 71.2235 62.4061 71.3755C62.3981 71.5195 62.3901 71.6595 62.3821 71.7955C62.3741 71.9235 62.3661 72.0275 62.3581 72.1075L65.8021 66.7195H67.0981V73.1515H66.1141V69.3595C66.1141 69.2315 66.1141 69.0635 66.1141 68.8555C66.1221 68.6475 66.1301 68.4435 66.1381 68.2435C66.1461 68.0355 66.1541 67.8795 66.1621 67.7755L62.7421 73.1515H61.4341V66.7195H62.4301V70.6435ZM70.201 66.7195V69.3955H73.693V66.7195H74.749V73.1515H73.693V70.2835H70.201V73.1515H69.145V66.7195H70.201ZM86.2755 66.7195V73.1515H85.3275V69.0475C85.3275 68.8795 85.3315 68.7035 85.3395 68.5195C85.3555 68.3355 85.3715 68.1555 85.3875 67.9795H85.3515L83.2515 73.1515H82.3635L80.3235 67.9795H80.2875C80.3035 68.1555 80.3115 68.3355 80.3115 68.5195C80.3195 68.7035 80.3235 68.8915 80.3235 69.0835V73.1515H79.3755V66.7195H80.7795L82.8075 71.8915L84.8715 66.7195H86.2755ZM87.3206 66.7195H88.4486L89.8406 70.3795C89.9206 70.5955 89.9926 70.8035 90.0566 71.0035C90.1286 71.2035 90.1926 71.3995 90.2486 71.5915C90.3046 71.7755 90.3486 71.9555 90.3806 72.1315H90.4286C90.4766 71.9315 90.5526 71.6715 90.6566 71.3515C90.7606 71.0235 90.8686 70.6955 90.9806 70.3675L92.2886 66.7195H93.4286L90.6566 74.0395C90.5046 74.4395 90.3246 74.7875 90.1166 75.0835C89.9166 75.3875 89.6686 75.6195 89.3726 75.7795C89.0846 75.9475 88.7326 76.0315 88.3166 76.0315C88.1246 76.0315 87.9566 76.0195 87.8126 75.9955C87.6686 75.9795 87.5446 75.9595 87.4406 75.9355V75.0955C87.5286 75.1115 87.6326 75.1275 87.7526 75.1435C87.8806 75.1595 88.0126 75.1675 88.1486 75.1675C88.3966 75.1675 88.6086 75.1195 88.7846 75.0235C88.9686 74.9355 89.1246 74.8035 89.2526 74.6275C89.3806 74.4595 89.4886 74.2595 89.5766 74.0275L89.9126 73.1755L87.3206 66.7195ZM102.162 66.7195L99.5098 69.8395L102.39 73.1515H101.19L98.4058 69.8875V73.1515H97.4218V69.8875L94.6378 73.1515H93.4378L96.3178 69.8395L93.6658 66.7195H94.8178L97.4218 69.8395V66.7195H98.4058V69.8395L101.022 66.7195H102.162ZM105.791 73.2715C105.223 73.2715 104.715 73.1555 104.267 72.9235C103.827 72.6915 103.479 72.3315 103.223 71.8435C102.975 71.3555 102.851 70.7315 102.851 69.9715C102.851 69.1795 102.983 68.5355 103.247 68.0395C103.511 67.5435 103.867 67.1795 104.315 66.9475C104.771 66.7155 105.287 66.5995 105.863 66.5995C106.191 66.5995 106.507 66.6355 106.811 66.7075C107.115 66.7715 107.363 66.8515 107.555 66.9475L107.231 67.8235C107.039 67.7515 106.815 67.6835 106.559 67.6195C106.303 67.5555 106.063 67.5235 105.839 67.5235C105.407 67.5235 105.051 67.6155 104.771 67.7995C104.491 67.9835 104.283 68.2555 104.147 68.6155C104.011 68.9755 103.943 69.4235 103.943 69.9595C103.943 70.4715 104.011 70.9075 104.147 71.2675C104.283 71.6275 104.487 71.8995 104.759 72.0835C105.031 72.2675 105.371 72.3595 105.779 72.3595C106.131 72.3595 106.439 72.3235 106.703 72.2515C106.975 72.1795 107.223 72.0915 107.447 71.9875V72.9235C107.231 73.0355 106.991 73.1195 106.727 73.1755C106.471 73.2395 106.159 73.2715 105.791 73.2715ZM112.781 66.7195H113.933L111.185 69.8155L114.161 73.1515H112.937L110.033 69.8875V73.1515H108.977V66.7195H110.033V69.8395L112.781 66.7195ZM120.686 69.9235C120.686 70.4595 120.614 70.9355 120.47 71.3515C120.334 71.7595 120.134 72.1075 119.87 72.3955C119.614 72.6835 119.298 72.9035 118.922 73.0555C118.554 73.1995 118.142 73.2715 117.686 73.2715C117.262 73.2715 116.87 73.1995 116.51 73.0555C116.15 72.9035 115.838 72.6835 115.574 72.3955C115.31 72.1075 115.102 71.7595 114.95 71.3515C114.806 70.9355 114.734 70.4595 114.734 69.9235C114.734 69.2115 114.854 68.6115 115.094 68.1235C115.334 67.6275 115.678 67.2515 116.126 66.9955C116.574 66.7315 117.106 66.5995 117.722 66.5995C118.306 66.5995 118.818 66.7315 119.258 66.9955C119.706 67.2515 120.054 67.6275 120.302 68.1235C120.558 68.6115 120.686 69.2115 120.686 69.9235ZM115.826 69.9235C115.826 70.4275 115.89 70.8675 116.018 71.2435C116.154 71.6115 116.362 71.8955 116.642 72.0955C116.922 72.2955 117.278 72.3955 117.71 72.3955C118.142 72.3955 118.498 72.2955 118.778 72.0955C119.058 71.8955 119.262 71.6115 119.39 71.2435C119.526 70.8675 119.594 70.4275 119.594 69.9235C119.594 69.4115 119.526 68.9755 119.39 68.6155C119.254 68.2555 119.046 67.9795 118.766 67.7875C118.494 67.5875 118.138 67.4875 117.698 67.4875C117.042 67.4875 116.566 67.7035 116.27 68.1355C115.974 68.5675 115.826 69.1635 115.826 69.9235ZM127.568 64.0555C127.536 64.4555 127.436 64.7915 127.268 65.0635C127.108 65.3355 126.868 65.5395 126.548 65.6755C126.228 65.8115 125.812 65.8795 125.3 65.8795C124.78 65.8795 124.36 65.8115 124.04 65.6755C123.728 65.5395 123.5 65.3395 123.356 65.0755C123.212 64.8035 123.124 64.4635 123.092 64.0555H124.076C124.116 64.4875 124.228 64.7795 124.412 64.9315C124.604 65.0755 124.908 65.1475 125.324 65.1475C125.692 65.1475 125.98 65.0715 126.188 64.9195C126.404 64.7595 126.532 64.4715 126.572 64.0555H127.568ZM123.356 70.6435C123.356 70.7155 123.352 70.8195 123.344 70.9555C123.344 71.0835 123.34 71.2235 123.332 71.3755C123.324 71.5195 123.316 71.6595 123.308 71.7955C123.3 71.9235 123.292 72.0275 123.284 72.1075L126.728 66.7195H128.024V73.1515H127.04V69.3595C127.04 69.2315 127.04 69.0635 127.04 68.8555C127.048 68.6475 127.056 68.4435 127.064 68.2435C127.072 68.0355 127.08 67.8795 127.088 67.7755L123.668 73.1515H122.36V66.7195H123.356V70.6435ZM138.253 69.9235C138.253 70.4595 138.181 70.9355 138.037 71.3515C137.901 71.7595 137.701 72.1075 137.437 72.3955C137.181 72.6835 136.865 72.9035 136.489 73.0555C136.121 73.1995 135.709 73.2715 135.253 73.2715C134.829 73.2715 134.437 73.1995 134.077 73.0555C133.717 72.9035 133.405 72.6835 133.141 72.3955C132.877 72.1075 132.669 71.7595 132.517 71.3515C132.373 70.9355 132.301 70.4595 132.301 69.9235C132.301 69.2115 132.421 68.6115 132.661 68.1235C132.901 67.6275 133.245 67.2515 133.693 66.9955C134.141 66.7315 134.673 66.5995 135.289 66.5995C135.873 66.5995 136.385 66.7315 136.825 66.9955C137.273 67.2515 137.621 67.6275 137.869 68.1235C138.125 68.6115 138.253 69.2115 138.253 69.9235ZM133.393 69.9235C133.393 70.4275 133.457 70.8675 133.585 71.2435C133.721 71.6115 133.929 71.8955 134.209 72.0955C134.489 72.2955 134.845 72.3955 135.277 72.3955C135.709 72.3955 136.065 72.2955 136.345 72.0955C136.625 71.8955 136.829 71.6115 136.957 71.2435C137.093 70.8675 137.161 70.4275 137.161 69.9235C137.161 69.4115 137.093 68.9755 136.957 68.6155C136.821 68.2555 136.613 67.9795 136.333 67.7875C136.061 67.5875 135.705 67.4875 135.265 67.4875C134.609 67.4875 134.133 67.7035 133.837 68.1355C133.541 68.5675 133.393 69.1635 133.393 69.9235ZM144.702 66.7195V72.2635H145.638V75.3835H144.618V73.1515H140.142V75.3835H139.134V72.2635H139.65C140.018 71.7515 140.322 71.1955 140.562 70.5955C140.81 69.9875 140.994 69.3555 141.114 68.6995C141.242 68.0355 141.31 67.3755 141.318 66.7195H144.702ZM142.254 67.5475C142.222 68.0915 142.138 68.6555 142.002 69.2395C141.866 69.8155 141.69 70.3675 141.474 70.8955C141.266 71.4235 141.022 71.8795 140.742 72.2635H143.682V67.5475H142.254ZM149.383 66.5995C149.935 66.5995 150.407 66.7195 150.799 66.9595C151.199 67.1995 151.503 67.5395 151.711 67.9795C151.927 68.4115 152.035 68.9195 152.035 69.5035V70.1395H147.631C147.647 70.8675 147.831 71.4235 148.183 71.8075C148.543 72.1835 149.043 72.3715 149.683 72.3715C150.091 72.3715 150.451 72.3355 150.763 72.2635C151.083 72.1835 151.411 72.0715 151.747 71.9275V72.8515C151.419 72.9955 151.095 73.0995 150.775 73.1635C150.455 73.2355 150.075 73.2715 149.635 73.2715C149.027 73.2715 148.487 73.1475 148.015 72.8995C147.551 72.6515 147.187 72.2835 146.923 71.7955C146.667 71.2995 146.539 70.6955 146.539 69.9835C146.539 69.2795 146.655 68.6755 146.887 68.1715C147.127 67.6675 147.459 67.2795 147.883 67.0075C148.315 66.7355 148.815 66.5995 149.383 66.5995ZM149.371 67.4635C148.867 67.4635 148.467 67.6275 148.171 67.9555C147.883 68.2755 147.711 68.7235 147.655 69.2995H150.931C150.931 68.9315 150.875 68.6115 150.763 68.3395C150.651 68.0675 150.479 67.8555 150.247 67.7035C150.023 67.5435 149.731 67.4635 149.371 67.4635ZM161.388 66.7195L158.736 69.8395L161.616 73.1515H160.416L157.632 69.8875V73.1515H156.648V69.8875L153.864 73.1515H152.664L155.544 69.8395L152.892 66.7195H154.044L156.648 69.8395V66.7195H157.632V69.8395L160.248 66.7195H161.388ZM167.448 66.7195V72.2635H168.384V75.3835H167.364V73.1515H162.888V75.3835H161.88V72.2635H162.396C162.764 71.7515 163.068 71.1955 163.308 70.5955C163.556 69.9875 163.74 69.3555 163.86 68.6995C163.988 68.0355 164.056 67.3755 164.064 66.7195H167.448ZM165 67.5475C164.968 68.0915 164.884 68.6555 164.748 69.2395C164.612 69.8155 164.436 70.3675 164.22 70.8955C164.012 71.4235 163.768 71.8795 163.488 72.2635H166.428V67.5475H165ZM169.645 73.1515V66.7195H170.701V69.3595H172.369C172.929 69.3595 173.389 69.4275 173.749 69.5635C174.109 69.6995 174.377 69.9035 174.553 70.1755C174.729 70.4395 174.817 70.7755 174.817 71.1835C174.817 71.5835 174.729 71.9315 174.553 72.2275C174.385 72.5235 174.117 72.7515 173.749 72.9115C173.389 73.0715 172.913 73.1515 172.321 73.1515H169.645ZM172.225 72.2995C172.681 72.2995 173.053 72.2235 173.341 72.0715C173.629 71.9115 173.773 71.6355 173.773 71.2435C173.773 70.8515 173.641 70.5875 173.377 70.4515C173.113 70.3075 172.733 70.2355 172.237 70.2355H170.701V72.2995H172.225ZM175.885 73.1515V66.7195H176.941V73.1515H175.885Z" fill="black"/>
</svg>
